<svg xmlns="http://www.w3.org/2000/svg" width="20" height="12" viewBox="0 0 20 12"><g><g><path fill="#95e1d3" d="M19.71 5.776l-.002.024-.001.013-.002.017a.33.33 0 0 1-.003.02v.003a.753.753 0 0 1-.203.41c-.204.247-.427.479-.651.707-1.211 1.23-2.602 2.327-4.123 3.122-.973.509-2.012.919-3.09 1.116a8.968 8.968 0 0 1-3.55-.05c-2.04-.444-3.887-1.545-5.503-2.863-.75-.611-1.488-1.28-2.108-2.032-.272-.33-.272-.719 0-1.048.203-.247.426-.48.65-.708 1.212-1.23 2.602-2.326 4.124-3.122C6.22.877 7.259.466 8.337.27a8.978 8.978 0 0 1 3.55.05c2.04.444 3.887 1.546 5.503 2.863.75.611 1.488 1.28 2.108 2.033a.751.751 0 0 1 .204.412l.002.02.003.018v.012l.002.025.002.037-.001.037zM9.99 1.942a3.645 3.645 0 1 0 0 7.29 3.645 3.645 0 0 0 0-7.29zm0 5.467a1.822 1.822 0 1 1 0-3.644 1.822 1.822 0 0 1 0 3.644z"/></g></g></svg>