<svg xmlns="http://www.w3.org/2000/svg" width="150" height="150" viewBox="0 0 150 150"><defs><clipPath id="dzfna"><path fill="#fff" d="M0 0h150v150H0z"/></clipPath></defs><g><g><path d="M0 0h150v150H0z"/><path fill="none" stroke="#95e1d3" stroke-linecap="round" stroke-linejoin="round" stroke-miterlimit="20" stroke-width="6" d="M0 0v0h150v150H0v0z" clip-path="url(&quot;#dzfna&quot;)"/></g><g><path fill="#95e1d3" d="M104 80.998h-2v5c0 .206-.021.41-.06.605-.029.136-.077.263-.123.392-.02.058-.03.117-.053.17-.048.115-.115.22-.176.327-.035.06-.061.126-.1.184a3.075 3.075 0 0 1-.334.403c-.012.013-.02.029-.033.04a2.982 2.982 0 0 1-2.084.876l-.037.002a2.985 2.985 0 0 1-2.121-.878l-7.122-7.121H62a3 3 0 0 1-3-3v-30a3 3 0 0 1 3-3h42a3 3 0 0 1 3 3v30a3 3 0 0 1-3 3zm-15.485 3l6.326 6.327.008-.008A5.968 5.968 0 0 0 99 91.999v2a3 3 0 0 1-3 2.999H64.243l-8.122 8.122a2.992 2.992 0 0 1-2.121.879c-.013 0-.024-.004-.037-.004a2.994 2.994 0 0 1-2.084-.875c-.013-.013-.021-.029-.033-.041a2.928 2.928 0 0 1-.334-.404c-.039-.057-.064-.122-.1-.183-.061-.108-.128-.212-.176-.326-.023-.054-.033-.114-.053-.17-.046-.13-.094-.257-.122-.394a3.005 3.005 0 0 1-.06-.605v-6h-4.005A3 3 0 0 1 44 94V59.998a3 3 0 0 1 3-3h9v21a6 6 0 0 0 6 6z"/></g></g></svg>